<?xml version="1.0" encoding="UTF-8" standalone="no"?>
<!-- Created with Inkscape (http://www.inkscape.org/) -->

<svg
   width="208.44058mm"
   height="208.44058mm"
   viewBox="0 0 208.44058 208.44058"
   version="1.1"
   id="svg1"
   xml:space="preserve"
   sodipodi:docname="logo.svg"
   inkscape:version="1.3.2 (091e20ef0f, 2023-11-25)"
   xmlns:inkscape="http://www.inkscape.org/namespaces/inkscape"
   xmlns:sodipodi="http://sodipodi.sourceforge.net/DTD/sodipodi-0.dtd"
   xmlns="http://www.w3.org/2000/svg"
   xmlns:svg="http://www.w3.org/2000/svg"><sodipodi:namedview
     id="namedview1"
     pagecolor="#ffffff"
     bordercolor="#000000"
     borderopacity="0.25"
     inkscape:showpageshadow="2"
     inkscape:pageopacity="0.0"
     inkscape:pagecheckerboard="0"
     inkscape:deskcolor="#d1d1d1"
     inkscape:document-units="mm"
     inkscape:zoom="1.0378437"
     inkscape:cx="393.60454"
     inkscape:cy="389.7504"
     inkscape:window-width="2560"
     inkscape:window-height="1371"
     inkscape:window-x="0"
     inkscape:window-y="0"
     inkscape:window-maximized="1"
     inkscape:current-layer="svg1" /><defs
     id="defs1" /><g
     id="layer4"
     transform="translate(-0.64031067,-45.468001)"><circle
       style="fill:#ffffff;fill-opacity:1;fill-rule:evenodd;stroke:#ffffff;stroke-width:0.2;stroke-linecap:round;stroke-dasharray:none;stroke-opacity:1"
       id="path57"
       cx="104.8606"
       cy="149.68829"
       r="104.12029" /></g><g
     id="layer2"
     style="display:inline"
     transform="translate(-0.64031067,-45.468001)"><path
       style="display:inline;opacity:0.995866;fill:none;fill-rule:evenodd;stroke:#000000;stroke-width:3.67885;stroke-linecap:round"
       d="m 63.957603,199.15555 c -17.552933,0 -31.782396,-13.09025 -31.782396,-29.23789 0,-16.14764 14.229463,-29.23789 31.782396,-29.23789 13.665194,0 25.316089,7.93378 29.806759,19.0674 m -16.971907,37.56262 c -3.921661,1.59241 -7.891034,1.77182 -12.834852,1.84576"
       id="path1" /><path
       id="ellipse1"
       style="display:inline;opacity:0.995866;fill:none;fill-rule:evenodd;stroke:#000000;stroke-width:3.67885;stroke-linecap:round"
       d="m 143.72243,199.15245 c -2.48921,0.6752 -6.54571,0.54813 -9.22632,0.54813 -17.55293,0 -31.7824,-13.09025 -31.7824,-29.23789 0,-16.14764 14.22947,-29.23789 31.7824,-29.23789 13.20751,0 24.53339,7.41123 29.33164,17.95965" /><path
       style="display:inline;fill:none;fill-rule:evenodd;stroke:#000000;stroke-width:3.74401;stroke-linecap:round"
       d="m 71.854996,228.73102 c 2.332381,4.19614 6.643496,7.2349 11.379491,8.02101 4.893275,0.81222 10.130347,-0.80744 13.710755,-4.2403"
       id="path3" /><ellipse
       style="display:inline;fill:#000000;fill-opacity:1;fill-rule:evenodd;stroke:#000000;stroke-width:3.74401"
       id="path4"
       cx="100.39377"
       cy="142.21194"
       rx="4.7953758"
       ry="3.4358058" /><circle
       style="display:inline;fill:#000000;fill-opacity:1;fill-rule:evenodd;stroke:#000000;stroke-width:3.74401"
       id="circle6"
       cx="124.66852"
       cy="157.15736"
       r="1.106246" /><circle
       style="display:inline;fill:#000000;fill-opacity:1;fill-rule:evenodd;stroke:#000000;stroke-width:3.74401"
       id="circle7"
       cx="131.09369"
       cy="169.68344"
       r="1.106246" /><circle
       style="display:inline;fill:#000000;fill-opacity:1;fill-rule:evenodd;stroke:#000000;stroke-width:3.74401"
       id="circle8"
       cx="58.028988"
       cy="170.84039"
       r="1.106246" /><circle
       style="display:inline;fill:#000000;fill-opacity:1;fill-rule:evenodd;stroke:#000000;stroke-width:3.74401"
       id="circle9"
       cx="51.375668"
       cy="158.35551"
       r="1.106246" /><circle
       style="display:inline;fill:#000000;fill-opacity:1;fill-rule:evenodd;stroke:#000000;stroke-width:3.74401"
       id="circle10"
       cx="47.137993"
       cy="178.34645"
       r="1.106246" /><path
       style="fill:none;fill-opacity:1;fill-rule:evenodd;stroke:#000000;stroke-width:3.74401"
       d="m 119.13584,144.14841 c 0.39889,-5.78176 0.73111,-11.56811 0.99659,-17.35753 0.28159,-6.14077 0.48808,-12.28498 0.61942,-18.4308 -0.0353,-8.2869 1.18393,-16.578035 3.60345,-24.503939 0.95914,-3.141957 2.11566,-6.247696 3.81416,-9.059622 1.6985,-2.811926 3.96881,-5.332102 6.81247,-6.976924 2.37062,-1.371209 5.09581,-2.101929 7.83309,-2.187799 2.73728,-0.08587 5.48337,0.465739 8.01034,1.521428 5.05394,2.111377 9.13568,6.196467 11.85119,10.953172 3.56714,6.248497 4.88554,13.603754 4.67592,20.795712 -0.20962,7.191962 -1.87922,14.266552 -3.97061,21.150902 -2.63883,8.68641 -5.96268,17.16463 -9.93054,25.33"
       id="path10" /><path
       style="display:inline;fill:none;fill-opacity:1;fill-rule:evenodd;stroke:#000000;stroke-width:3.74401"
       d="m 119.13584,144.14841 c 0.39889,-5.78176 0.73111,-11.56811 0.99659,-17.35753 0.28159,-6.14077 0.48808,-12.28498 0.61942,-18.4308 -0.0353,-8.2869 1.18393,-16.578035 3.60345,-24.503939 0.95914,-3.141957 2.11566,-6.247696 3.81416,-9.059622 1.6985,-2.811926 3.96881,-5.332102 6.81247,-6.976924 2.37062,-1.371209 5.09581,-2.101929 7.83309,-2.187799 2.73728,-0.08587 5.48337,0.465739 8.01034,1.521428 5.05394,2.111377 9.13568,6.196467 11.85119,10.953172 3.56714,6.248497 4.88554,13.603754 4.67592,20.795712 -0.20962,7.191962 -1.87922,14.266552 -3.97061,21.150902 -2.63883,8.68641 -5.96268,17.16463 -9.93054,25.33"
       id="path11"
       transform="translate(-70.647647,-0.58516262)" /><circle
       style="fill:#000000;fill-opacity:1;fill-rule:evenodd;stroke:#000000;stroke-width:3.74401"
       id="path6"
       cx="117.48425"
       cy="169.62111"
       r="1.106246" /><path
       id="path2"
       style="display:inline;fill:#000000;fill-opacity:1;fill-rule:evenodd;stroke:#000000;stroke-width:3.74401"
       d="m 70.05245,167.33664 c -1.303843,0.23194 0.02627,4.59511 0.507462,6.92929 1.042798,5.05847 2.478153,10.04729 3.185852,15.16342 0.31527,2.27917 0.4738,4.57687 0.581186,6.8777 0.06135,1.31439 0.106001,2.62979 0.153653,3.94334 0.153438,4.2296 -1.655759,14.85634 -0.687814,19.53783 0.431271,2.08585 1.554501,4.05567 2.939872,5.67355 1.032822,1.20617 2.348618,2.27698 3.842143,2.81637 1.86491,0.67352 4.02359,0.87736 5.93762,0.35966 7.883298,-2.14025 12.699112,-7.92783 17.652156,-13.91749 3.08203,-3.6593 5.80733,-7.70266 7.77782,-12.06231 1.21403,-2.68601 2.76718,-5.56651 2.72955,-8.48166 -6.98911,-5.00934 -11.388,-12.47512 -12.1357,-20.59667 -9.968722,0.86455 -22.536081,-1.76509 -31.753613,-6.07147 -0.303927,-0.15345 -0.543925,-0.2047 -0.730187,-0.17156 z" /><path
       style="fill:#000000;fill-opacity:1;fill-rule:evenodd;stroke:#000000;stroke-width:3.74401"
       d="m 136.9064,140.80612 c 0,0 3.41196,-13.80024 4.93539,-20.73842 6.40186,-3.47487 12.95302,-4.2239 12.81201,-9.83344 -0.1158,-4.60683 -3.46586,-6.15743 -11.43077,-8.36806 0.51993,-4.541032 0.1649,-14.107318 3.75432,-18.720843 3.59269,-4.617732 14.09377,2.268152 17.34409,15.995715 1.99961,8.445228 -4.05358,23.610428 -4.05358,23.610428 l -8.44126,21.0536 z"
       id="path34" /><path
       style="fill:#000000;fill-opacity:1;fill-rule:evenodd;stroke:#000000;stroke-width:3.74401"
       d="m 67.852707,140.44961 c 0,0 3.41196,-13.80024 4.93539,-20.73842 6.40186,-3.47487 12.95302,-4.2239 12.81201,-9.83344 -0.1158,-4.60683 -3.46586,-6.15743 -11.43077,-8.36806 0.51993,-4.541034 0.1649,-14.10732 3.75432,-18.720845 3.59269,-4.617732 14.09377,2.268152 17.34409,15.995715 1.99961,8.44523 -4.05358,23.61043 -4.05358,23.61043 l -8.44126,21.0536 z"
       id="path35" /><path
       style="fill:#ffffff;fill-opacity:1;fill-rule:evenodd;stroke:#ffffff;stroke-width:0.2;stroke-linecap:round;stroke-dasharray:none;stroke-opacity:1"
       d="m 74.894431,171.7142 c 0,0 -0.525593,4.17212 0.08278,6.11982 1.472292,4.71352 6.101777,5.31367 8.41748,0.93 0.672075,-1.27225 0.46344,-4.24939 0.46344,-4.24939 z"
       id="path36" /><path
       style="fill:#ffffff;fill-opacity:1;fill-rule:evenodd;stroke:#ffffff;stroke-width:0.2;stroke-linecap:round;stroke-dasharray:none;stroke-opacity:1"
       d="m 88.288231,175.67944 c 0,0 -0.177362,3.71268 0.475043,5.64607 1.57885,4.67891 7.490707,3.88339 8.480353,-0.0726 0.349193,-1.39584 0.372018,-4.59092 0.372018,-4.59092 z"
       id="path37" /></g></svg>
