<?xml version="1.0" encoding="UTF-8" standalone="no"?>
<svg
   width="16"
   height="16"
   version="1.1"
   id="svg1"
   sodipodi:docname="starred.svg"
   inkscape:version="1.3.2 (091e20ef0f, 2023-11-25)"
   xmlns:inkscape="http://www.inkscape.org/namespaces/inkscape"
   xmlns:sodipodi="http://sodipodi.sourceforge.net/DTD/sodipodi-0.dtd"
   xmlns="http://www.w3.org/2000/svg"
   xmlns:svg="http://www.w3.org/2000/svg">
  <sodipodi:namedview
     id="namedview1"
     pagecolor="#ffffff"
     bordercolor="#000000"
     borderopacity="0.25"
     inkscape:showpageshadow="2"
     inkscape:pageopacity="0.0"
     inkscape:pagecheckerboard="0"
     inkscape:deskcolor="#d1d1d1"
     inkscape:zoom="45.254834"
     inkscape:cx="10.385631"
     inkscape:cy="8.1648736"
     inkscape:window-width="2560"
     inkscape:window-height="1369"
     inkscape:window-x="0"
     inkscape:window-y="0"
     inkscape:window-maximized="1"
     inkscape:current-layer="svg1" />
  <defs
     id="defs1">
    <style
       id="current-color-scheme"
       type="text/css">.ColorScheme-Text {
        color:#363636;
      }</style>
  </defs>
  <path
     d="m7.9595 1a1 1 0 0 0-0.875 0.6l-1.488 3.4h-3.846c-0.92 1e-3 -1.35 1.137-0.664 1.748l2.994 2.652-1.521 4.264c-0.315 0.887 0.658 1.679 1.462 1.19l3.979-2.432 3.978 2.432a1 1 0 0 0 1.463-1.19l-1.521-4.264 2.994-2.652a1 1 0 0 0-0.664-1.748h-3.846l-1.404-3.209-0.084-0.191a1 1 0 0 0-0.149-0.24l-0.011-0.014a1 1 0 0 0-0.205-0.178 1 1 0 0 0-2e-3 -2e-3l-0.012-6e-3a1 1 0 0 0-0.238-0.113l-0.019-7e-3a1 1 0 0 0-0.28-0.04 1 1 0 0 0-0.041 0zm0.041 1 1 2.285 0.75 1.715h4.5l-3.5 3.102 1.75 4.898-3.629-2.217-0.871-0.533-4.5 2.75 1.75-4.898-3.5-3.102h4.5z"
     class="ColorScheme-Text"
     fill="currentColor"
     id="path1"
     style="stroke-width:0.3;stroke-dasharray:none" />
</svg>
