<?xml version="1.0" encoding="UTF-8" standalone="no"?>
<svg
   version="1.1"
   viewBox="0 0 16 16"
   id="svg1"
   sodipodi:docname="system-search.svg"
   inkscape:version="1.3.2 (091e20e, 2023-11-25, custom)"
   xmlns:inkscape="http://www.inkscape.org/namespaces/inkscape"
   xmlns:sodipodi="http://sodipodi.sourceforge.net/DTD/sodipodi-0.dtd"
   xmlns="http://www.w3.org/2000/svg"
   xmlns:svg="http://www.w3.org/2000/svg">
  <sodipodi:namedview
     id="namedview1"
     pagecolor="#ffffff"
     bordercolor="#000000"
     borderopacity="0.25"
     inkscape:showpageshadow="2"
     inkscape:pageopacity="0.0"
     inkscape:pagecheckerboard="0"
     inkscape:deskcolor="#d1d1d1"
     inkscape:zoom="48.5625"
     inkscape:cx="7.989704"
     inkscape:cy="8"
     inkscape:window-width="1920"
     inkscape:window-height="991"
     inkscape:window-x="-9"
     inkscape:window-y="-9"
     inkscape:window-maximized="1"
     inkscape:current-layer="svg1" />
  <defs
     id="defs1">
    <style
       id="current-color-scheme"
       type="text/css">.ColorScheme-Text {
        color:#363636;
      }</style>
  </defs>
  <path
     class="ColorScheme-Text"
     d="m6.5 1c-3.0376 0-5.5 2.4624-5.5 5.5s2.4624 5.5 5.5 5.5c1.1132-3e-5 2.2001-0.33783 3.1172-0.96875l3.6855 3.6855c0.9585 1.0092 2.4356-0.50284 1.4043-1.4375l-2.3496-2.3477-1.3203-1.3203-0.0098-0.00977c0.62778-0.91289 0.97013-1.9924 0.97266-3.1016 0-3.0376-2.4624-5.5-5.5-5.5zm0 1c2.4853 0 4.5 2.0147 4.5 4.5s-2.0147 4.5-4.5 4.5-4.5-2.0147-4.5-4.5 2.0147-4.5 4.5-4.5z"
     fill="currentColor"
     id="path1"
     style="fill:#ffffff;fill-opacity:1" />
</svg>
