<?xml version="1.0" standalone="no"?>
<!DOCTYPE svg PUBLIC "-//W3C//DTD SVG 20010904//EN"
 "http://www.w3.org/TR/2001/REC-SVG-20010904/DTD/svg10.dtd">
<svg version="1.0" xmlns="http://www.w3.org/2000/svg"
 width="465.000000pt" height="268.000000pt" viewBox="0 0 465.000000 268.000000"
 preserveAspectRatio="xMidYMid meet">

<g transform="translate(0.000000,268.000000) scale(0.100000,-0.100000)"
fill="#000000" stroke="none">
<path d="M446 2369 c-142 -33 -273 -156 -316 -296 -19 -63 -20 -92 -20 -753 0
-664 1 -690 20 -754 38 -122 150 -237 275 -283 48 -17 128 -18 1620 -21 1045
-2 1586 1 1618 8 131 28 252 125 310 247 l32 68 0 735 0 735 -32 68 c-57 120
-176 217 -304 246 -56 13 -3147 13 -3203 0z m3195 -184 c64 -22 113 -67 146
-133 l28 -57 0 -675 0 -675 -28 -57 c-16 -32 -45 -71 -65 -88 -78 -64 28 -60
-1687 -58 -1520 3 -1561 3 -1599 22 -46 23 -99 74 -123 119 -17 30 -18 82 -18
737 l0 705 33 52 c33 52 77 87 137 110 22 9 419 12 1581 12 1366 1 1556 -1
1595 -14z"/>
<path d="M583 2019 c-45 -13 -100 -71 -113 -119 -7 -26 -10 -225 -8 -602 l3
-563 23 -37 c13 -20 40 -47 60 -60 l37 -23 1173 -3 c644 -1 1172 1 1173 5 4
39 6 1197 2 1291 l-6 122 -1156 -1 c-686 0 -1169 -5 -1188 -10z"/>
<path d="M4170 1320 l0 -432 28 7 c113 27 223 119 279 233 37 75 38 78 38 191
0 110 -2 120 -32 184 -55 116 -173 216 -285 243 l-28 6 0 -432z"/>
</g>
</svg>
