<?xml version="1.0" encoding="UTF-8" standalone="no"?>
<svg
   version="1.1"
   viewBox="-5.0 -10.0 110.0 135.0"
   id="svg2"
   sodipodi:docname="noun-home-6853612.svg"
   inkscape:version="1.3.2 (091e20ef0f, 2023-11-25)"
   xmlns:inkscape="http://www.inkscape.org/namespaces/inkscape"
   xmlns:sodipodi="http://sodipodi.sourceforge.net/DTD/sodipodi-0.dtd"
   xmlns="http://www.w3.org/2000/svg"
   xmlns:svg="http://www.w3.org/2000/svg">
  <defs
     id="defs2" />
  <sodipodi:namedview
     id="namedview2"
     pagecolor="#ffffff"
     bordercolor="#000000"
     borderopacity="0.25"
     inkscape:showpageshadow="2"
     inkscape:pageopacity="0.0"
     inkscape:pagecheckerboard="0"
     inkscape:deskcolor="#d1d1d1"
     inkscape:zoom="8.4666667"
     inkscape:cx="55.03937"
     inkscape:cy="62.893701"
     inkscape:window-width="2560"
     inkscape:window-height="1369"
     inkscape:window-x="0"
     inkscape:window-y="0"
     inkscape:window-maximized="1"
     inkscape:current-layer="svg2" />
  <path
     d="M 101.42376,54.068205 H 87.630378 v 45.765663 c 0,0.635892 -0.252493,1.243742 -0.701364,1.692612 -0.44887,0.44887 -1.056725,0.70136 -1.692613,0.70136 H 64.887594 c -1.318555,0 -2.393977,-1.06606 -2.393977,-2.393972 v -30.47533 c 0,-0.626552 -0.252493,-1.243743 -0.701364,-1.692614 C 61.343383,67.217053 60.735528,66.96456 60.09964,66.96456 H 39.994061 c -1.318554,0 -2.393977,1.075423 -2.393977,2.393978 v 30.47533 c 0,0.635892 -0.252493,1.243742 -0.701363,1.692612 -0.448871,0.44887 -1.056726,0.70136 -1.692614,0.70136 H 14.810618 c -1.327915,0 -2.393977,-1.06606 -2.393977,-2.393972 V 54.068205 H -1.4234204 c -1.0193076,0.05611 -1.9731639,-0.533043 -2.3565833,-1.477539 -0.3927559,-0.953856 -0.1309194,-2.038615 0.6358882,-2.711897 L 48.278515,-1.5271041 c 0.448871,-0.4675677 1.066062,-0.7294209 1.720671,-0.7294209 0.65461,0 1.271801,0.2618532 1.720672,0.7294209 L 103.14249,49.878769 c 0.76681,0.673306 1.02867,1.758089 0.63589,2.711897 -0.38342,0.944496 -1.33726,1.53363 -2.35659,1.477539 z"
     id="path1"
     style="stroke-width:2.39398" />
</svg>
