<?xml version="1.0" encoding="UTF-8" standalone="no"?>
<svg
   data-name="Layer 1"
   viewBox="0 0 100 125"
   x="0px"
   y="0px"
   version="1.1"
   id="svg3"
   sodipodi:docname="noun-message-3548811.svg"
   inkscape:version="1.3.2 (091e20ef0f, 2023-11-25)"
   xmlns:inkscape="http://www.inkscape.org/namespaces/inkscape"
   xmlns:sodipodi="http://sodipodi.sourceforge.net/DTD/sodipodi-0.dtd"
   xmlns="http://www.w3.org/2000/svg"
   xmlns:svg="http://www.w3.org/2000/svg">
  <defs
     id="defs3" />
  <sodipodi:namedview
     id="namedview3"
     pagecolor="#ffffff"
     bordercolor="#000000"
     borderopacity="0.25"
     inkscape:showpageshadow="2"
     inkscape:pageopacity="0.0"
     inkscape:pagecheckerboard="0"
     inkscape:deskcolor="#d1d1d1"
     inkscape:zoom="6.4657844"
     inkscape:cx="47.326044"
     inkscape:cy="63.488043"
     inkscape:window-width="2560"
     inkscape:window-height="1369"
     inkscape:window-x="0"
     inkscape:window-y="0"
     inkscape:window-maximized="1"
     inkscape:current-layer="svg3" />
  <title
     id="title1">Artboard 5</title>
  <path
     d="m 7.955445,112.60887 a 9.5919137,9.5919137 0 0 0 10.455186,-2.07825 l 9.991577,-9.97559 H 81.973046 A 15.986523,15.986523 0 0 0 97.959568,84.568506 V 33.411633 A 15.986523,15.986523 0 0 0 81.973046,17.425111 H 18.026954 A 15.986523,15.986523 0 0 0 2.0404316,33.411633 v 70.340697 a 9.5919137,9.5919137 0 0 0 5.9150134,8.85654 z m 3.6769,-21.645755 V 33.411633 a 6.3946091,6.3946091 0 0 1 6.394609,-6.394609 h 63.946092 a 6.3946091,6.3946091 0 0 1 6.394609,6.394609 v 51.156873 a 6.3946091,6.3946091 0 0 1 -6.394609,6.394609 H 24.421563 L 11.632345,103.75233 Z"
     id="path1"
     style="stroke-width:1.59865" />
  <rect
     x="26.020216"
     y="65.384682"
     width="47.959568"
     height="9.5919132"
     id="rect1"
     style="stroke-width:1.59865" />
  <rect
     x="26.020216"
     y="43.003548"
     width="47.959568"
     height="9.5919132"
     id="rect2"
     style="stroke-width:1.59865" />
</svg>
