<?xml version="1.0" encoding="UTF-8" standalone="no"?>
<svg
   version="1.1"
   x="0px"
   y="0px"
   viewBox="0 0 100 125"
   style="enable-background:new 0 0 100 100;"
   xml:space="preserve"
   id="svg2"
   sodipodi:docname="profile.svg"
   inkscape:version="1.3.2 (091e20ef0f, 2023-11-25)"
   xmlns:inkscape="http://www.inkscape.org/namespaces/inkscape"
   xmlns:sodipodi="http://sodipodi.sourceforge.net/DTD/sodipodi-0.dtd"
   xmlns="http://www.w3.org/2000/svg"
   xmlns:svg="http://www.w3.org/2000/svg"><defs
     id="defs2" /><sodipodi:namedview
     id="namedview2"
     pagecolor="#ffffff"
     bordercolor="#000000"
     borderopacity="0.25"
     inkscape:showpageshadow="2"
     inkscape:pageopacity="0.0"
     inkscape:pagecheckerboard="0"
     inkscape:deskcolor="#d1d1d1"
     inkscape:zoom="6.4657844"
     inkscape:cx="31.705357"
     inkscape:cy="47.712695"
     inkscape:window-width="2560"
     inkscape:window-height="1369"
     inkscape:window-x="0"
     inkscape:window-y="0"
     inkscape:window-maximized="1"
     inkscape:current-layer="svg2" /><g
     id="g1"
     transform="translate(0,14.386402)"><circle
       cx="50"
       cy="32.700001"
       r="15"
       id="circle1" /><path
       d="M 50,2.5 C 23.8,2.5 2.5,23.8 2.5,50 2.5,76.2 23.8,97.5 50,97.5 76.2,97.5 97.5,76.2 97.5,50 97.5,23.8 76.2,2.5 50,2.5 Z M 79.6,76.9 C 77,62.9 64.7,52.3 50,52.3 35.3,52.3 23,62.9 20.4,76.9 13.9,69.8 10,60.4 10,50 10,27.9 27.9,10 50,10 72.1,10 90,27.9 90,50 90,60.4 86.1,69.8 79.6,76.9 Z"
       id="path1" /></g></svg>
