<?xml version="1.0" encoding="UTF-8" standalone="no"?>
<svg
   version="1.1"
   viewBox="-5.0 -10.0 110.0 135.0"
   id="svg5"
   sodipodi:docname="noun-signal-6844203.svg"
   inkscape:version="1.3.2 (091e20ef0f, 2023-11-25)"
   xmlns:inkscape="http://www.inkscape.org/namespaces/inkscape"
   xmlns:sodipodi="http://sodipodi.sourceforge.net/DTD/sodipodi-0.dtd"
   xmlns="http://www.w3.org/2000/svg"
   xmlns:svg="http://www.w3.org/2000/svg">
  <defs
     id="defs5" />
  <sodipodi:namedview
     id="namedview5"
     pagecolor="#ffffff"
     bordercolor="#000000"
     borderopacity="0.25"
     inkscape:showpageshadow="2"
     inkscape:pageopacity="0.0"
     inkscape:pagecheckerboard="0"
     inkscape:deskcolor="#d1d1d1"
     inkscape:zoom="2.9934187"
     inkscape:cx="-47.4374"
     inkscape:cy="-6.5142908"
     inkscape:window-width="2560"
     inkscape:window-height="1369"
     inkscape:window-x="0"
     inkscape:window-y="0"
     inkscape:window-maximized="1"
     inkscape:current-layer="g4" />
  <g
     id="g4">
    <path
       d="M 15.864807,69.293518 H 6.8752044 c -3.7569188,0 -6.79649956,3.04545 -6.79649956,6.796499 v 14.010518 c 0,3.751049 3.04545066,6.7965 6.79649956,6.7965 h 8.9896026 c 3.75692,0 6.7965,-3.045451 6.7965,-6.7965 V 76.090017 c 0,-3.751049 -3.045451,-6.796499 -6.7965,-6.796499 z"
       id="path1"
       style="stroke-width:1.50512" />
    <path
       d="m 41.968026,56.746875 h -8.989603 c -3.75692,0 -6.7965,3.04545 -6.7965,6.796499 v 26.562278 c 0,3.75105 3.04545,6.7965 6.7965,6.7965 h 8.989603 c 3.756919,0 6.796499,-3.04545 6.796499,-6.7965 V 63.543374 c 0,-3.751049 -3.045451,-6.796499 -6.796499,-6.796499 z"
       id="path2"
       style="stroke-width:1.50512" />
    <path
       d="m 68.072749,36.668634 h -8.989603 c -3.756919,0 -6.7965,3.04545 -6.7965,6.7965 v 46.634498 c 0,3.751049 3.045451,6.7965 6.7965,6.7965 h 8.989603 c 3.756918,0 6.7965,-3.045451 6.7965,-6.7965 V 43.465134 c 0,-3.75105 -3.045451,-6.7965 -6.7965,-6.7965 z"
       id="path3"
       style="stroke-width:1.50512" />
    <path
       d="M 94.177472,16.590393 H 85.18787 c -3.75692,0 -6.7965,3.045451 -6.7965,6.7965 v 66.712739 c 0,3.751049 3.04545,6.7965 6.7965,6.7965 h 8.989602 c 3.756919,0 6.796498,-3.045451 6.796498,-6.7965 V 23.386893 c 0,-3.751049 -3.039579,-6.7965 -6.796498,-6.7965 z"
       id="path4"
       style="opacity:0.508522;stroke-width:1.50512" />
  </g>
</svg>
